<svg id="file" xmlns="http://www.w3.org/2000/svg" width="39.678" height="60.273" viewBox="0 0 39.678 60.273">
  <path id="Path_23372" data-name="Path 23372" d="M39.676,11.79c0-.013,0-.026,0-.039a1.177,1.177,0,0,0-.019-.151h0a1.237,1.237,0,0,0-.04-.147l-.013-.036a1.273,1.273,0,0,0-.058-.133l0-.007a1.155,1.155,0,0,0-.081-.13l-.023-.031a1.188,1.188,0,0,0-.1-.119L28.681.345a1.188,1.188,0,0,0-.119-.1L28.531.219A1.116,1.116,0,0,0,28.4.138l-.009,0a1.233,1.233,0,0,0-.131-.058L28.224.063a1.2,1.2,0,0,0-.146-.04h0A1.248,1.248,0,0,0,27.927,0l-.039,0-.04,0H1.177A1.177,1.177,0,0,0,0,1.177V51.564a1.177,1.177,0,0,0,1.177,1.177H18.9V59.1a1.178,1.178,0,0,0,1.8,1l4.483-2.813,4.483,2.813a1.177,1.177,0,0,0,1.8-1V52.742H38.5a1.177,1.177,0,0,0,1.177-1.177V11.83C39.678,11.817,39.677,11.8,39.676,11.79ZM29.026,4.02l6.633,6.633H29.026ZM18.32,36.36a3.616,3.616,0,0,1-.221-.743,3.494,3.494,0,0,1,.607-.439,4.273,4.273,0,0,0,1.24-1.036,4.245,4.245,0,0,0,.615-1.507,3.807,3.807,0,0,1,.218-.682,1.472,1.472,0,0,1,.292-.021c.131,0,.278.007.433.015.178.009.362.018.555.018a3.338,3.338,0,0,0,1.076-.151,4.44,4.44,0,0,0,1.358-.837,3.017,3.017,0,0,1,.689-.473,2.813,2.813,0,0,1,.7.473,4.442,4.442,0,0,0,1.359.837,3.336,3.336,0,0,0,1.076.151c.192,0,.376-.009.554-.018.155-.008.3-.015.434-.015a1.439,1.439,0,0,1,.292.021,3.772,3.772,0,0,1,.218.682,4.246,4.246,0,0,0,.615,1.507,4.269,4.269,0,0,0,1.24,1.036,3.53,3.53,0,0,1,.606.439,3.641,3.641,0,0,1-.22.743,4.661,4.661,0,0,0-.373,1.617,4.677,4.677,0,0,0,.373,1.617,3.616,3.616,0,0,1,.221.743,3.531,3.531,0,0,1-.606.439,3.361,3.361,0,0,0-1.855,2.543A3.821,3.821,0,0,1,29.6,44a1.476,1.476,0,0,1-.292.021c-.132,0-.278-.007-.434-.015-.178-.009-.362-.018-.554-.018a3.336,3.336,0,0,0-1.076.151,4.451,4.451,0,0,0-1.359.837,2.933,2.933,0,0,1-.694.472,2.932,2.932,0,0,1-.694-.472,4.457,4.457,0,0,0-1.359-.837,3.338,3.338,0,0,0-1.076-.151c-.192,0-.376.009-.555.018-.155.008-.3.015-.433.015A1.476,1.476,0,0,1,20.779,44a3.807,3.807,0,0,1-.218-.682,4.236,4.236,0,0,0-.615-1.507,4.261,4.261,0,0,0-1.24-1.036,3.506,3.506,0,0,1-.606-.439,3.649,3.649,0,0,1,.22-.743,4.661,4.661,0,0,0,.373-1.617A4.672,4.672,0,0,0,18.32,36.36Zm10.8,20.607-3.306-2.074a1.18,1.18,0,0,0-1.252,0l-3.306,2.074V46.374c.125,0,.248-.008.367-.014.156-.008.3-.016.436-.016a1.154,1.154,0,0,1,.332.031,3.169,3.169,0,0,1,.626.438,3.466,3.466,0,0,0,2.17.993,3.466,3.466,0,0,0,2.17-.993,3.156,3.156,0,0,1,.626-.438,1.162,1.162,0,0,1,.333-.031c.133,0,.28.007.436.015.119.006.242.011.366.014V56.967Zm2.354-6.58V45.425a4.285,4.285,0,0,0,.62-1.517,3.03,3.03,0,0,1,.235-.7,3.055,3.055,0,0,1,.6-.437,3.321,3.321,0,0,0,1.587-1.683,3.4,3.4,0,0,0-.248-2.3,3.18,3.18,0,0,1-.229-.807,3.178,3.178,0,0,1,.229-.806,3.4,3.4,0,0,0,.248-2.3,3.322,3.322,0,0,0-1.587-1.683,3.1,3.1,0,0,1-.6-.437,3.042,3.042,0,0,1-.235-.7,3.285,3.285,0,0,0-1.1-2,2.8,2.8,0,0,0-1.689-.469c-.19,0-.374.009-.552.018-.156.008-.3.015-.435.015a1.156,1.156,0,0,1-.333-.031,3.142,3.142,0,0,1-.626-.438,3.471,3.471,0,0,0-2.171-.992,3.47,3.47,0,0,0-2.17.992,3.162,3.162,0,0,1-.626.438,1.159,1.159,0,0,1-.333.031c-.132,0-.28-.007-.436-.016-.178-.009-.361-.018-.552-.018a2.794,2.794,0,0,0-1.688.469,3.284,3.284,0,0,0-1.1,2,3.054,3.054,0,0,1-.234.7,3.094,3.094,0,0,1-.6.437,3.324,3.324,0,0,0-1.587,1.683,3.4,3.4,0,0,0,.248,2.3,3.178,3.178,0,0,1,.229.806,3.18,3.18,0,0,1-.229.807,3.4,3.4,0,0,0-.248,2.3,3.325,3.325,0,0,0,1.587,1.683,3.08,3.08,0,0,1,.6.437,3.054,3.054,0,0,1,.234.7,4.282,4.282,0,0,0,.62,1.517v4.962H2.354V2.354H26.671V11.83a1.177,1.177,0,0,0,1.177,1.177h9.475v37.38Zm0,0" fill="#00f5ca" fill-rule="evenodd"/>
  <path id="Path_23373" data-name="Path 23373" d="M50.04,92.847H65.207a1.177,1.177,0,0,0,0-2.354H50.04a1.177,1.177,0,1,0,0,2.354Zm0,0" transform="translate(-43.111 -79.839)" fill="#00f5ca" fill-rule="evenodd"/>
  <path id="Path_23374" data-name="Path 23374" d="M75.991,140.969H50.04a1.177,1.177,0,1,0,0,2.354H75.991a1.177,1.177,0,0,0,0-2.354Zm0,0" transform="translate(-43.111 -124.374)" fill="#00f5ca" fill-rule="evenodd"/>
  <path id="Path_23375" data-name="Path 23375" d="M71.283,191.445H50.04a1.177,1.177,0,1,0,0,2.354H71.283a1.177,1.177,0,0,0,0-2.354Zm0,0" transform="translate(-43.111 -168.908)" fill="#00f5ca" fill-rule="evenodd"/>
  <path id="Path_23376" data-name="Path 23376" d="M270.486,191.445a1.177,1.177,0,1,0,1.177,1.177A1.179,1.179,0,0,0,270.486,191.445Zm0,0" transform="translate(-237.605 -168.908)" fill="#00f5ca" fill-rule="evenodd"/>
</svg>
