<svg xmlns="http://www.w3.org/2000/svg" width="70.074" height="54.312" viewBox="0 0 70.074 54.312">
  <g id="open-pdf-booklet" transform="translate(0 -7.881)">
    <path id="Path_23377" data-name="Path 23377" d="M67.679,17.313V13.141H63.261V7.881l-28.335,5.26H2.392v4.172H0V62.192H70.074V17.313Zm-62.954,0V15.477H33.867V58.1H4.725Zm43-4.172,13.194-2.45V53.273L36.2,57.863V15.281l5.234-.972Zm17.615,4.172V58.1H47.729l15.53-2.879V15.479h2.085v1.834ZM39.554,47.305l-.616-2.254L57.415,40.03l.614,2.253Zm-.212,6.3-.614-2.256,18.477-5.021.614,2.254Zm.463-30.3-.63-2.249,13.436-3.747,4.58-1.278.356,1.278.267.972Zm0,5.962-.63-2.25L57.191,22l.63,2.249Zm-.033,5.958-.632-2.25,18.055-5.023.627,2.25Zm0,5.963-.632-2.25,18.055-5.021.627,2.25ZM7.97,45.6h22.9v2.336H7.97Zm-.211,6.31h22.9v2.336H7.759ZM30.653,35.871H8.182V33.536H30.653Zm0,5.963H8.182V39.5H30.653Zm-19.628-12V27.06c.459-.009,1.006-.016,1.637-.009a2.861,2.861,0,0,0,2.03-.659,2.52,2.52,0,0,0,.693-1.915,2.329,2.329,0,0,0-.693-1.821,2.96,2.96,0,0,0-2.03-.624H9.4v7.806h1.631v0Zm0-6.463h1.358a1.583,1.583,0,0,1,1.029.281,1.011,1.011,0,0,1,.341.836,1.16,1.16,0,0,1-.341.912,1.513,1.513,0,0,1-1.029.3H11.025Zm8.834,6.463a3.127,3.127,0,0,0,2.548-1.042,4.667,4.667,0,0,0,.869-3.056,4.062,4.062,0,0,0-.836-2.768,3.076,3.076,0,0,0-2.445-.941h-3.34v7.806h3.2ZM18.28,23.372h1.509a1.64,1.64,0,0,1,1.392.613,2.986,2.986,0,0,1,.463,1.821,3.393,3.393,0,0,1-.5,2.017,1.743,1.743,0,0,1-1.488.673H18.28Zm7.044,6.463h-.816V22.029h5.554v1.387H26.138v1.771h3.421v1.344H26.138v3.3h-.814Z" fill="#00f5ca"/>
  </g>
</svg>
