<svg xmlns="http://www.w3.org/2000/svg" width="52.858" height="59.996" viewBox="0 0 52.858 59.996"><defs><style>.a{fill:#00f5ca;}</style></defs><g transform="translate(-0.36)"><path class="a" d="M190.323,161.66a.937.937,0,0,0-.337-.012,2.237,2.237,0,0,1-1.979-2.219.984.984,0,0,0-1.968,0,4.21,4.21,0,0,0,3.1,4.054v.984a.984.984,0,1,0,1.968,0v-.925a4.2,4.2,0,0,0-.861-8.316,2.234,2.234,0,1,1,2.234-2.234.984.984,0,1,0,1.968,0,4.21,4.21,0,0,0-3.342-4.114v-.9a.984.984,0,1,0-1.968,0v.956a4.2,4.2,0,0,0,1.107,8.256,2.233,2.233,0,0,1,.082,4.465Zm0,0" transform="translate(-162.837 -128.917)"/><path class="a" d="M104.2,120.763a14.271,14.271,0,1,0,14.271-14.271A14.271,14.271,0,0,0,104.2,120.763Zm14.271-12.3a12.3,12.3,0,1,1-12.3,12.3A12.3,12.3,0,0,1,118.466,108.46Zm0,0" transform="translate(-91.062 -93.392)"/><path class="a" d="M46.526,330.277l-7.709,3.642a6.279,6.279,0,0,0-5.353-3.3l-7.117-.2a7.516,7.516,0,0,1-3.234-.835l-.724-.375a12.773,12.773,0,0,0-11.831.012l.045-1.641a.984.984,0,0,0-.957-1.011l-7.8-.215a.984.984,0,0,0-1.011.957L.361,344.438a.984.984,0,0,0,.957,1.011l7.8.215h.027a.984.984,0,0,0,.984-.957l.023-.819,2.027-1.085a3.477,3.477,0,0,1,2.6-.284l12.106,3.4.064.016a12.959,12.959,0,0,0,2.661.274,13.13,13.13,0,0,0,5.485-1.2.916.916,0,0,0,.122-.067l17.553-11.354a.985.985,0,0,0,.322-1.311A4.971,4.971,0,0,0,46.526,330.277ZM2.355,343.509l.417-15.158,5.836.161L8.191,343.67Zm31.852-.258a11.158,11.158,0,0,1-6.823.762L15.31,340.624a5.441,5.441,0,0,0-4.057.444l-1.036.555.277-10.078a10.818,10.818,0,0,1,10.99-.586l.724.375a9.505,9.505,0,0,0,4.085,1.055l7.117.2a4.316,4.316,0,0,1,4.1,3.44l-10.6-.293a.984.984,0,0,0-.054,1.968l11.7.322h.027a.984.984,0,0,0,.983-.957,6.246,6.246,0,0,0-.1-1.277l7.907-3.736.023-.011a3.007,3.007,0,0,1,3.4.476Zm0,0" transform="translate(0 -286.21)"/><path class="a" d="M214.171,10.333V.984a.984.984,0,1,0-1.968,0v9.349a.984.984,0,1,0,1.968,0Zm0,0" transform="translate(-185.783)"/><path class="a" d="M274.171,45.413V40.984a.984.984,0,1,0-1.968,0v4.429a.984.984,0,1,0,1.968,0Zm0,0" transform="translate(-238.402 -35.079)"/><path class="a" d="M154.171,45.413V40.984a.984.984,0,1,0-1.968,0v4.429a.984.984,0,1,0,1.968,0Zm0,0" transform="translate(-133.164 -35.079)"/></g></svg>