<svg xmlns="http://www.w3.org/2000/svg" width="90.682" height="27.916" viewBox="0 0 90.682 27.916"><defs><style>.a{fill:#3c3c3c;}</style></defs><g transform="translate(31.701 0.464)"><g transform="translate(0 0)"><path class="a" d="M21.331,16.8,16.722,43.845h7.371L28.705,16.8Z" transform="translate(-16.722 -16.799)"/></g></g><g transform="translate(7.321 0.489)"><g transform="translate(0 0)"><path class="a" d="M22.061,16.818,14.842,35.262l-.77-2.785C12.649,29.121,8.607,24.3,3.862,21.265l6.6,22.554,7.8-.013L29.87,16.812Z" transform="translate(-3.862 -16.812)"/></g></g><g transform="translate(0 0.233)"><path class="a" d="M14.734,18.874c-.428-1.647-1.67-2.138-3.211-2.2H.095L0,17.215c8.893,2.157,14.778,7.356,17.219,13.606Z" transform="translate(0 -16.677)"/></g><g transform="translate(43.684 0)"><path class="a" d="M37.982,22.2A13.607,13.607,0,0,1,43.5,23.239l.665.313,1-5.862a19.025,19.025,0,0,0-6.6-1.136c-7.284,0-12.417,3.668-12.457,8.925-.047,3.885,3.657,6.053,6.455,7.348,2.872,1.327,3.835,2.171,3.822,3.356-.023,1.81-2.29,2.641-4.408,2.641a15.472,15.472,0,0,1-6.94-1.416l-.95-.432-1.037,6.053a23.343,23.343,0,0,0,8.212,1.441c7.748,0,12.783-3.625,12.836-9.242.032-3.073-1.934-5.418-6.193-7.342-2.578-1.255-4.156-2.089-4.14-3.356C33.758,23.405,35.1,22.2,37.982,22.2Z" transform="translate(-23.043 -16.554)"/></g><g transform="translate(64.217 0.495)"><g transform="translate(0 0)"><path class="a" d="M54.375,16.815H48.68c-1.769,0-3.084.482-3.862,2.245L33.874,43.845h7.74s1.263-3.333,1.549-4.063c.847,0,8.368.011,9.439.011.22.944.9,4.051.9,4.051h6.838Zm-9.09,17.432c.607-1.553,2.937-7.559,2.937-7.559-.04.074.6-1.564.982-2.582l.5,2.332,1.708,7.809Z" transform="translate(-33.874 -16.815)"/></g></g></svg>