<svg xmlns="http://www.w3.org/2000/svg" xmlns:xlink="http://www.w3.org/1999/xlink" width="58.5" height="52.7" viewBox="0 0 58.5 52.7">
  <defs>
    <filter id="Ellipse_76" x="29.5" y="0" width="29" height="29" filterUnits="userSpaceOnUse">
      <feOffset input="SourceAlpha"/>
      <feGaussianBlur stdDeviation="1.5" result="blur"/>
      <feFlood flood-opacity="0.2"/>
      <feComposite operator="in" in2="blur"/>
      <feComposite in="SourceGraphic"/>
    </filter>
  </defs>
  <g id="Group_2469" data-name="Group 2469" transform="translate(-190 -3013.5)">
    <g id="Group_104" data-name="Group 104" transform="translate(-430.8 2950.8)">
      <path id="Path_16" data-name="Path 16" d="M667.4,111.2v-1.4H666v-1.4h-1.4v-2.8h-1.4V87.2H666V77.8l-.8-.4-19.8-9.9-.6-.3-.6.3-19.8,9.9-.8.4v9.4h2.8v18.4H625v2.8h-1.4v1.4h-1.4v1.4h-1.4v4.2h48.1v-4.2h-1.5Zm-1.5.8H623.5v-.7h42.4Zm-41-33.3h39.6v7.1H625V78.7Zm36.8,7.8v19.8h-4.2V86.5Zm0,20.5h1.4v1.4H656V107Zm-8.5,0v1.4h-7.1V107Zm-5.6-.7V86.5h4.2v19.8Zm-4.3.7v1.4h-7.1V107Zm-5.6-.7V86.5h4.2v19.8Zm-9.9,0V86.5H632v19.8Zm0,.7h5.7v1.4h-7.1V107Zm5.6,2.1h.7v-2.8h-1.4V86.5h4.2v19.8h-1.4v2.8H644v-2.8h-1.4V86.5h4.2v19.8h-1.4v2.8h8.5v-2.8h-1.4V86.5h4.2v19.8h-1.4v2.8H633.4Zm31.1.7v.7H624.9v-.7Zm-19.8-41L663.1,78H626.3Zm22.7,45.3H622.1v-1.4h45.2v1.4Z" fill="#575757"/>
      <path id="Path_17" data-name="Path 17" d="M663.8,85.3V79.7H625.6v5.6h38.2Zm-37.4-5h36.8v4.2H626.4Z" fill="#575757"/>
      <path id="Path_18" data-name="Path 18" d="M660.1,77.3l-15.4-7.7-15.2,7.7Zm-15.4-6.9,12.4,6.2H632.5Z" fill="#575757"/>
      <path id="Path_19" data-name="Path 19" d="M640.4,82.4a1.381,1.381,0,0,0,.4-.3.6.6,0,0,0,.1-.4.908.908,0,0,0-.3-.7c-.2-.2-.5-.2-.9-.2h-1.5v.4l.4.1v2.4l-.4.1v.4h1.6a2,2,0,0,0,.9-.2.908.908,0,0,0,.3-.7c0-.2-.1-.3-.2-.5C640.7,82.5,640.6,82.4,640.4,82.4Zm-1.2-1.1h.5c.2,0,.3,0,.4.1a.5.5,0,0,1,0,.6c-.1.1-.2.1-.4.1h-.5Zm1,2.2c-.1.1-.2.1-.4.1h-.6v-1h.7c.2,0,.3,0,.4.1s.1.2.1.4C640.3,83.3,640.3,83.4,640.2,83.5Z" fill="#575757"/>
      <path id="Path_20" data-name="Path 20" d="M643.1,80.8h-.7l-1,2.9h-.2v.4h1.1v-.4h-.2l.1-.5h1.1l.1.5h-.2v.4h1.1v-.4h-.2Zm-.7,1.9.4-1.2h0l.4,1.2Z" fill="#575757"/>
      <path id="Path_21" data-name="Path 21" d="M646.6,80.8v.4h.4V83h0l-1.4-2.2h-1v.4h.4v2.4l-.4.1v.4H646v-.4l-.4-.1V81.9h0l1.4,2.2h.7V81.2h.3v-.4h-1.4Z" fill="#575757"/>
      <path id="Path_22" data-name="Path 22" d="M650.1,82.3l.9-1.1h.3v-.4H650v.4h.2l-.6.9h-.3v-.9h.3v-.4h-1.4v.4h.4v2.4l-.4.1v.4h1.4v-.4l-.3-.1v-.9h.3l.7,1h-.2v.4h1.3v-.4h-.3Z" fill="#575757"/>
    </g>
    <g id="Group_110" data-name="Group 110" transform="translate(-102 240)">
      <g transform="matrix(1, 0, 0, 1, 292, 2773.5)" filter="url(#Ellipse_76)">
        <circle id="Ellipse_76-2" data-name="Ellipse 76" cx="10" cy="10" r="10" transform="translate(34 4.5)" fill="#f6f7fb"/>
      </g>
      <text id="C" transform="translate(336 2793)" font-size="14" font-family="Poppins-Medium, Poppins" font-weight="500"><tspan x="-5.411" y="0">C</tspan></text>
    </g>
  </g>
</svg>
