<svg id="Group_541" data-name="Group 541" xmlns="http://www.w3.org/2000/svg" xmlns:xlink="http://www.w3.org/1999/xlink" width="497.498" height="293.905" viewBox="0 0 497.498 293.905">
  <defs>
    <linearGradient id="linear-gradient" x1="-0.002" y1="0.5" x2="1.015" y2="0.5" gradientUnits="objectBoundingBox">
      <stop offset="0.054" stop-color="#8c8c8c"/>
      <stop offset="0.218" stop-color="#a0a0a0"/>
      <stop offset="0.4" stop-color="#787878"/>
      <stop offset="0.642" stop-color="#a0a0a0"/>
      <stop offset="0.836" stop-color="#787878"/>
      <stop offset="1" stop-color="#a0a0a0"/>
    </linearGradient>
    <linearGradient id="linear-gradient-2" x1="0" y1="0.5" x2="1.012" y2="0.5" xlink:href="#linear-gradient"/>
    <linearGradient id="linear-gradient-3" x1="0.5" y1="1" x2="0.5" gradientUnits="objectBoundingBox">
      <stop offset="0" stop-color="#2b2c2e"/>
      <stop offset="0.588" stop-color="#272b30"/>
      <stop offset="0.788" stop-color="#0a0e11"/>
      <stop offset="1" stop-color="#070b0e"/>
    </linearGradient>
    <linearGradient id="linear-gradient-4" y1="0.5" x2="1" y2="0.5" gradientUnits="objectBoundingBox">
      <stop offset="0" stop-color="#828387"/>
      <stop offset="0.006" stop-color="#d0d1d3"/>
      <stop offset="0.026" stop-color="#929397"/>
      <stop offset="0.054" stop-color="#d1d2d5"/>
      <stop offset="0.509" stop-color="#f3f3f4"/>
      <stop offset="0.936" stop-color="#d1d2d5"/>
      <stop offset="0.967" stop-color="#929397"/>
      <stop offset="0.989" stop-color="#e6e6e6"/>
      <stop offset="0.996" stop-color="#d0d1d3"/>
      <stop offset="1" stop-color="#828387"/>
    </linearGradient>
    <linearGradient id="linear-gradient-5" y1="0.499" x2="1" y2="0.499" gradientUnits="objectBoundingBox">
      <stop offset="0" stop-color="#95969b"/>
      <stop offset="0.079" stop-color="#d8d9db"/>
      <stop offset="0.545" stop-color="#d7d8db"/>
      <stop offset="0.921" stop-color="#d8d9db"/>
      <stop offset="1" stop-color="#95969b"/>
    </linearGradient>
    <linearGradient id="linear-gradient-6" x1="0.5" y1="1.001" x2="0.5" gradientUnits="objectBoundingBox">
      <stop offset="0" stop-color="#2b2c2e"/>
      <stop offset="0.145" stop-color="#3c3d40"/>
      <stop offset="0.372" stop-color="#5f6064"/>
      <stop offset="0.75" stop-color="#88898d"/>
      <stop offset="1" stop-color="#909195"/>
    </linearGradient>
  </defs>
  <g id="Group_538" data-name="Group 538" transform="translate(46.866)" opacity="0.7">
    <path id="Path_1229" data-name="Path 1229" d="M472.484,2H95.611A12.788,12.788,0,0,0,82.86,14.751V266.676a8.719,8.719,0,0,0,8.694,8.694H476.541a8.719,8.719,0,0,0,8.694-8.694V14.751A12.788,12.788,0,0,0,472.484,2Z" transform="translate(-81.701 -0.841)" fill="url(#linear-gradient)"/>
    <path id="Path_1230" data-name="Path 1230" d="M475.7,275.688H90.713a9.867,9.867,0,0,1-9.853-9.853V13.91A13.929,13.929,0,0,1,94.77,0H471.643a13.929,13.929,0,0,1,13.91,13.91V265.835A9.863,9.863,0,0,1,475.7,275.688ZM94.77,2.318A11.6,11.6,0,0,0,83.178,13.91V265.835a7.542,7.542,0,0,0,7.535,7.535H475.7a7.542,7.542,0,0,0,7.535-7.535V13.91A11.6,11.6,0,0,0,471.643,2.318Z" transform="translate(-80.86)" fill="url(#linear-gradient-2)"/>
  </g>
  <g id="Group_539" data-name="Group 539" transform="translate(48.025 16.646)">
    <path id="Path_1231" data-name="Path 1231" d="M485.235,277.909a8.719,8.719,0,0,1-8.694,8.694H91.554a8.719,8.719,0,0,1-8.694-8.694V37.414a8.719,8.719,0,0,1,8.694-8.694H476.541a8.719,8.719,0,0,1,8.694,8.694Z" transform="translate(-82.86 -28.72)" fill="#1c1f23"/>
  </g>
  <rect id="Rectangle_317" data-name="Rectangle 317" width="319.065" height="6.086" transform="translate(89.68 265.621)" fill="url(#linear-gradient-3)"/>
  <path id="Path_1232" data-name="Path 1232" d="M472.484,2H95.611A12.788,12.788,0,0,0,82.86,14.751V261.79a4.684,4.684,0,0,0,4.672,4.672H480.569a4.684,4.684,0,0,0,4.672-4.672V14.751A12.8,12.8,0,0,0,472.484,2Z" transform="translate(-34.835 -0.841)" fill="#000003" stroke="#323232" stroke-miterlimit="10" stroke-width="1"/>
  <g id="Group_540" data-name="Group 540" transform="translate(59.223 16.64)">
    <rect id="Rectangle_318" data-name="Rectangle 318" width="379.904" height="239.07" fill="#e8e9ea"/>
  </g>
  <rect id="Rectangle_319" data-name="Rectangle 319" width="497.498" height="9.239" transform="translate(0 271.788)" fill="url(#linear-gradient-4)"/>
  <path id="Path_1233" data-name="Path 1233" d="M433.966,474.846h-60.2a5.42,5.42,0,0,1-3.292-2.3,5.838,5.838,0,0,1-1.124-3.605h69.354a8.122,8.122,0,0,1-1.594,3.959A6.177,6.177,0,0,1,433.966,474.846Z" transform="translate(-155.276 -197.147)" fill="url(#linear-gradient-5)"/>
  <path id="Path_1234" data-name="Path 1234" d="M0,484.86s2.857,2.347,10.937,4.672c6.729,1.936,18.257,1.762,18.257,1.762H468.3s11.534.168,18.257-1.762c8.08-2.324,10.937-4.672,10.937-4.672Z" transform="translate(0 -203.84)" fill="url(#linear-gradient-6)"/>
  <path id="Path_1235" data-name="Path 1235" d="M643.309,2H489.19L595.209,266.462h56.185a4.684,4.684,0,0,0,4.672-4.672V14.751A12.8,12.8,0,0,0,643.309,2Z" transform="translate(-205.66 -0.841)" fill="#fff" opacity="0.21"/>
  <path id="Path_1236" data-name="Path 1236" d="M0,502.421s2.857-2.347,10.937-4.671c6.729-1.936,18.257-1.762,18.257-1.762H468.3s11.534-.168,18.257,1.762c8.08,2.324,10.937,4.671,10.937,4.671Z" transform="translate(0 -208.516)" fill="#b9babd" opacity="0.55"/>
</svg>
