<svg id="amazon-logo" xmlns="http://www.w3.org/2000/svg" width="114.686" height="34.553" viewBox="0 0 114.686 34.553">
  <g id="Group_173" data-name="Group 173" transform="translate(19.552 0.168)">
    <g id="Group_172" data-name="Group 172">
      <path id="Path_352" data-name="Path 352" d="M30.188,16.8a5.243,5.243,0,0,0-9.012,1.383c-.994-2.3-2.386-3.375-4.605-3.375a4.691,4.691,0,0,0-4.676,3.375h-.06V15.8a.665.665,0,0,0-.644-.609H7.881a.669.669,0,0,0-.685.655V34.065a.664.664,0,0,0,.636.6h3.551a.671.671,0,0,0,.682-.658V24.349c0-2.106-.1-5.021,2.445-5.021,2.521,0,2.193,2.989,2.193,5.021v9.657a.673.673,0,0,0,.641.658h3.543a.67.67,0,0,0,.685-.658V24.349a11.124,11.124,0,0,1,.329-3.491,2.357,2.357,0,0,1,2.122-1.492,1.848,1.848,0,0,1,2.087,1.568,22.99,22.99,0,0,1,.1,3.415v9.657a.675.675,0,0,0,.639.658h3.546a.671.671,0,0,0,.682-.658l.005-11.493C31.082,20.558,31.31,18.333,30.188,16.8Z" transform="translate(-7.196 -14.809)" fill="#ADADAD"/>
    </g>
  </g>
  <g id="Group_175" data-name="Group 175" transform="translate(81.343 0.171)">
    <g id="Group_174" data-name="Group 174">
      <path id="Path_353" data-name="Path 353" d="M37.921,14.81c-5.135,0-7.983,4.41-7.983,10.078,0,5.635,2.812,10.157,7.983,10.157,4.967,0,8.116-4.407,8.116-9.964C46.05,19.331,43.192,14.81,37.921,14.81Zm0,16.479c-2.782,0-2.752-4.752-2.752-6.978s.168-5.785,2.78-5.785a2.218,2.218,0,0,1,2.32,1.763,16.719,16.719,0,0,1,.533,4.831C40.812,27.458,40.678,31.289,37.921,31.289Z" transform="translate(-29.938 -14.81)" fill="#ADADAD"/>
    </g>
  </g>
  <g id="Group_177" data-name="Group 177" transform="translate(46.532 0)">
    <g id="Group_176" data-name="Group 176">
      <path id="Path_354" data-name="Path 354" d="M33.9,31.441a4.876,4.876,0,0,1-1.331-3.29V22.618c0-2.339.16-4.491-1.565-6.105a8.047,8.047,0,0,0-5.344-1.766c-3.375,0-7.149,1.258-7.936,5.431a.624.624,0,0,0,.527.744l3.44.37a.747.747,0,0,0,.619-.649,2.7,2.7,0,0,1,2.853-2.13,2.35,2.35,0,0,1,1.986.924,4.5,4.5,0,0,1,.435,2.57l0,.451c-2.057.236-4.747.386-6.673,1.234a6.025,6.025,0,0,0-3.782,5.8c0,3.687,2.32,5.532,5.306,5.532a7.032,7.032,0,0,0,5.853-2.581,8.562,8.562,0,0,0,2.035,2.369.748.748,0,0,0,.842-.082l.005.005c.709-.625,1.994-1.753,2.717-2.356A.668.668,0,0,0,33.9,31.441Zm-6.32-5.366a6.9,6.9,0,0,1-.666,3.763,2.868,2.868,0,0,1-2.448,1.611c-1.367,0-2.165-1.035-2.165-2.57,0-3.024,2.712-3.573,5.279-3.573v.769Z" transform="translate(-17.126 -14.747)" fill="#ADADAD"/>
    </g>
  </g>
  <g id="Group_179" data-name="Group 179" transform="translate(100.104 0.166)">
    <g id="Group_178" data-name="Group 178">
      <path id="Path_355" data-name="Path 355" d="M50.5,16.957a4.681,4.681,0,0,0-4.149-2.149c-2.448,0-3.847,1.187-4.836,3.679h-.057V15.7a.681.681,0,0,0-.636-.511h-3.29a.674.674,0,0,0-.685.6l.005,18.221a.676.676,0,0,0,.641.663h3.529a.684.684,0,0,0,.7-.663V24.2a7.972,7.972,0,0,1,.568-3.451A2.316,2.316,0,0,1,44.337,19.3c2.445,0,2.212,2.915,2.212,4.907V34.1a.676.676,0,0,0,.625.576h3.562a.693.693,0,0,0,.69-.576V22.631C51.425,20.867,51.425,18.419,50.5,16.957Z" transform="translate(-36.843 -14.808)" fill="#ADADAD"/>
    </g>
  </g>
  <g id="Group_181" data-name="Group 181" transform="translate(65.63 0.508)">
    <g id="Group_180" data-name="Group 180">
      <path id="Path_356" data-name="Path 356" d="M37.539,29.519a12.868,12.868,0,0,0-6.654-1.426l6.054-8.63c.557-.777.875-1.263.875-1.638V15.594a.647.647,0,0,0-.674-.66H25.475a.639.639,0,0,0-.658.66V18.2a.643.643,0,0,0,.674.655h6.1l-7,10.042a3.151,3.151,0,0,0-.429,1.791v2.644c0,.38.432.818.834.6a13.428,13.428,0,0,1,12.316-.016c.446.228.859-.217.859-.6V30.53A1.2,1.2,0,0,0,37.539,29.519Z" transform="translate(-24.155 -14.934)" fill="#ADADAD"/>
    </g>
  </g>
  <g id="Group_183" data-name="Group 183" transform="translate(65.588 20.847)">
    <g id="Group_182" data-name="Group 182">
      <path id="Path_357" data-name="Path 357" d="M35.311,23.26c-.725-.9-6.975-1.674-10.787,1-.581.41-.486.978.168.9,2.144-.253,6.926-.826,7.773.261s-.948,5.589-1.755,7.594c-.247.609.28.853.829.4C35.123,30.434,36.042,24.168,35.311,23.26Z" transform="translate(-24.139 -22.419)" fill="#ADADAD"/>
    </g>
  </g>
  <g id="Group_185" data-name="Group 185" transform="translate(16.143 22.041)">
    <g id="Group_184" data-name="Group 184">
      <path id="Path_358" data-name="Path 358" d="M59.983,26.277A59.861,59.861,0,0,1,37,30.975,60.557,60.557,0,0,1,6.892,22.989c-.747-.44-1.3.329-.682.891a44.571,44.571,0,0,0,30.1,11.491c8.32,0,17.973-2.617,24.641-7.529C62.048,27.027,61.11,25.8,59.983,26.277Z" transform="translate(-5.941 -22.859)" fill="#ADADAD"/>
    </g>
  </g>
  <g id="Group_187" data-name="Group 187" transform="translate(0 0)">
    <g id="Group_186" data-name="Group 186">
      <path id="Path_359" data-name="Path 359" d="M16.778,31.441a4.866,4.866,0,0,1-1.337-3.29V22.618c0-2.339.166-4.491-1.56-6.105a8.056,8.056,0,0,0-5.35-1.766c-3.375,0-7.14,1.258-7.936,5.431a.631.631,0,0,0,.527.744l3.451.37a.748.748,0,0,0,.614-.649,2.7,2.7,0,0,1,2.856-2.13,2.369,2.369,0,0,1,1.989.924,4.562,4.562,0,0,1,.427,2.57v.456C8.4,22.7,5.714,22.852,3.785,23.7A6.026,6.026,0,0,0,0,29.5c0,3.687,2.326,5.532,5.312,5.532a7.025,7.025,0,0,0,5.853-2.581A8.609,8.609,0,0,0,13.2,34.815a.745.745,0,0,0,.84-.082l.011.005c.706-.625,1.992-1.753,2.72-2.356A.667.667,0,0,0,16.778,31.441Zm-6.32-5.366a6.92,6.92,0,0,1-.663,3.763,2.87,2.87,0,0,1-2.456,1.611c-1.361,0-2.152-1.035-2.152-2.57,0-3.024,2.709-3.573,5.271-3.573Z" transform="translate(0 -14.747)" fill="#ADADAD"/>
    </g>
  </g>
</svg>
