<svg id="paypal-logo" xmlns="http://www.w3.org/2000/svg" width="136.963" height="37.078" viewBox="0 0 136.963 37.078">
  <g id="Group_189" data-name="Group 189" transform="translate(0 2.304)">
    <g id="Group_188" data-name="Group 188">
      <path id="Path_360" data-name="Path 360" d="M24.548,22.965a5.552,5.552,0,0,0-2.038-2.2,9.546,9.546,0,0,0-3.241-1.19,26.492,26.492,0,0,0-4.4-.348l-7.79.005a1.952,1.952,0,0,0-1.793,1.424L.04,43.487a1.1,1.1,0,0,0,1.128,1.418H4.9a1.91,1.91,0,0,0,1.791-1.418l1.28-5.543a1.911,1.911,0,0,1,1.788-1.416h1.068c4.562-.005,8.094-.937,10.632-2.8a8.733,8.733,0,0,0,3.809-7.4A6.939,6.939,0,0,0,24.548,22.965ZM16.5,30.423a7.845,7.845,0,0,1-4.717,1.239h-.913A1.112,1.112,0,0,1,9.74,30.239l1.122-4.847a1.888,1.888,0,0,1,1.777-1.416l1.223-.008a5.969,5.969,0,0,1,3.244.725,2.467,2.467,0,0,1,1.076,2.223A4.038,4.038,0,0,1,16.5,30.423Z" transform="translate(0 -19.229)" fill="#ADADAD"/>
    </g>
  </g>
  <g id="Group_191" data-name="Group 191" transform="translate(128.638 0)">
    <g id="Group_190" data-name="Group 190">
      <path id="Path_361" data-name="Path 361" d="M49.6,22.473l-.234.071-.312.043-.383-.06-.2-.19-.09-.3-.005-.448V19.93h1.247v-.514H48.38V18.381h-.617v1.035h-.418v.514h.418v1.932l.288.956.848.3.356-.03.378-.073v-.546Z" transform="translate(-47.345 -18.381)" fill="#ADADAD"/>
    </g>
  </g>
  <g id="Group_193" data-name="Group 193" transform="translate(131.656 0.932)">
    <g id="Group_192" data-name="Group 192">
      <path id="Path_362" data-name="Path 362" d="M53.477,19.091l-.891-.367-.658.133-.668.451-.389-.432-.63-.149-.606.133-.573.37v-.4h-.606v3.627h.6V19.746l.508-.315.505-.125.413.073.2.209.09.348.03.448v2.073h.606v-2.32l-.011-.193-.011-.177.516-.329.511-.128.4.073.217.209.076.35.041.443V22.46h.609V20.1Z" transform="translate(-48.456 -18.724)" fill="#ADADAD"/>
    </g>
  </g>
  <g id="Group_195" data-name="Group 195" transform="translate(23.195 8.113)">
    <g id="Group_194" data-name="Group 194">
      <path id="Path_363" data-name="Path 363" d="M27.88,22.557q-2.111-1.19-6.668-1.19a29.466,29.466,0,0,0-4.513.351c-1.117.171-1.225.2-1.913.353A2.188,2.188,0,0,0,13.145,23.8l-.456,1.878c-.258,1.2.432,1.152.72,1.052a19.388,19.388,0,0,1,2.231-.658,15.992,15.992,0,0,1,3.494-.467,9.209,9.209,0,0,1,3.394.478,1.714,1.714,0,0,1,1.125,1.7l-.065.527-.538.331c-2.117.133-3.646.329-5.5.6a17.065,17.065,0,0,0-4.73,1.3A7.353,7.353,0,0,0,9.6,33.064a6.9,6.9,0,0,0-1.068,3.9,4.609,4.609,0,0,0,1.519,3.543,5.7,5.7,0,0,0,3.932,1.342,10.726,10.726,0,0,0,2.342-.217l1.807-.622,1.53-.848,1.407-.929.019.027-.141.6-.008.024v.005a1.109,1.109,0,0,0,1,1.4l.014.016h3.464l.049-.022a1.929,1.929,0,0,0,1.606-1.4l2.72-11.773.141-.959.065-.9A3.936,3.936,0,0,0,27.88,22.557ZM21.864,35.795l-.581.766-1.467.758a5.224,5.224,0,0,1-1.951.421,4.476,4.476,0,0,1-2.125-.4l-.72-1.4a2.8,2.8,0,0,1,.546-1.82l1.581-1.076a13.676,13.676,0,0,1,2.459-.554c.853-.106,2.538-.3,2.758-.3l.258.454C22.571,32.893,22.092,34.893,21.864,35.795Z" transform="translate(-8.537 -21.367)" fill="#ADADAD"/>
    </g>
  </g>
  <g id="Group_197" data-name="Group 197" transform="translate(90.952 8.127)">
    <g id="Group_196" data-name="Group 196">
      <path id="Path_364" data-name="Path 364" d="M52.818,22.565q-2.123-1.19-6.665-1.193a28.4,28.4,0,0,0-4.51.359c-1.119.163-1.231.2-1.921.345A2.181,2.181,0,0,0,38.086,23.8l-.456,1.875c-.255,1.2.418,1.144.734,1.052a22.1,22.1,0,0,1,2.212-.66,16.685,16.685,0,0,1,3.5-.467,9.161,9.161,0,0,1,3.385.481,1.71,1.71,0,0,1,1.125,1.693l-.057.524L48,28.64c-2.138.128-3.671.323-5.507.592a17.071,17.071,0,0,0-4.733,1.3,7.347,7.347,0,0,0-3.212,2.538,6.816,6.816,0,0,0-1.071,3.885A4.558,4.558,0,0,0,35,40.506a5.709,5.709,0,0,0,3.923,1.35,10.393,10.393,0,0,0,2.339-.22l1.8-.614,1.543-.848,1.4-.94.024.03-.128.6-.014.011.005.011a1.092,1.092,0,0,0,.992,1.4l.005.014h3.462l.057-.019A1.91,1.91,0,0,0,52,39.873l2.728-11.757.144-.965.079-.9A3.93,3.93,0,0,0,52.818,22.565Zm-6,13.238-.606.774-1.454.753a5.284,5.284,0,0,1-1.943.421,4.344,4.344,0,0,1-2.122-.408l-.728-1.394a2.916,2.916,0,0,1,.533-1.826,3.822,3.822,0,0,1,1.6-1.073A13.858,13.858,0,0,1,44.55,32.5c.848-.106,2.527-.3,2.744-.307l.264.454C47.519,32.9,47.038,34.895,46.816,35.8Z" transform="translate(-33.475 -21.372)" fill="#ADADAD"/>
    </g>
  </g>
  <g id="Group_199" data-name="Group 199" transform="translate(67.745 2.386)">
    <g id="Group_198" data-name="Group 198">
      <path id="Path_365" data-name="Path 365" d="M49.483,23a5.772,5.772,0,0,0-2.054-2.206,9.156,9.156,0,0,0-3.241-1.19,25.647,25.647,0,0,0-4.388-.342l-7.8.005a1.938,1.938,0,0,0-1.78,1.418l-5.247,22.84A1.105,1.105,0,0,0,26.1,44.938l3.736-.005a1.934,1.934,0,0,0,1.793-1.413l1.263-5.546a1.934,1.934,0,0,1,1.793-1.416h1.068c4.567,0,8.108-.94,10.656-2.8a8.83,8.83,0,0,0,3.793-7.41A7.278,7.278,0,0,0,49.483,23Zm-8.045,7.469a7.943,7.943,0,0,1-4.706,1.223H35.8a1.117,1.117,0,0,1-1.141-1.421l1.13-4.839a1.9,1.9,0,0,1,1.782-1.416l1.209-.008a6.039,6.039,0,0,1,3.244.723,2.487,2.487,0,0,1,1.084,2.223A4.1,4.1,0,0,1,41.438,30.467Z" transform="translate(-24.934 -19.259)" fill="#ADADAD"/>
    </g>
  </g>
  <g id="Group_201" data-name="Group 201" transform="translate(113.016 2.589)">
    <g id="Group_200" data-name="Group 200">
      <path id="Path_366" data-name="Path 366" d="M52.862,20.736a1.091,1.091,0,0,0-1.119-1.4H48.4a1.893,1.893,0,0,0-1.6,1.133l-.185.288-.168.739L41.774,42.726l-.152.652.005.016a1.058,1.058,0,0,0,.937,1.326l.057.079h3.47A1.9,1.9,0,0,0,47.7,43.647l.179-.272,4.994-22.636Z" transform="translate(-41.595 -19.334)" fill="#ADADAD"/>
    </g>
  </g>
  <g id="Group_203" data-name="Group 203" transform="translate(45.899 8.398)">
    <g id="Group_202" data-name="Group 202">
      <path id="Path_367" data-name="Path 367" d="M38.881,21.472c-.883.011-4.472,0-4.472,0A3.234,3.234,0,0,0,32.062,22.9S26.72,32.063,26.2,32.985l-.619-.008L23.919,22.958A2.054,2.054,0,0,0,21.886,21.5l-3.342.005a1.1,1.1,0,0,0-1.117,1.424s2.538,14.441,3.046,17.84c.236,1.875-.03,2.209-.03,2.209l-3.3,5.755c-.489.783-.226,1.421.576,1.421l3.864-.005a3.123,3.123,0,0,0,2.339-1.418L38.781,23.589S40.21,21.442,38.881,21.472Z" transform="translate(-16.893 -21.472)" fill="#ADADAD"/>
    </g>
  </g>
</svg>
