<svg xmlns="http://www.w3.org/2000/svg" width="39.366" height="44.682" viewBox="0 0 39.366 44.682"><defs><style>.a{fill:#f2f2f2;}</style></defs><path class="a" d="M189.229,157.918a.7.7,0,0,0-.251-.009,1.666,1.666,0,0,1-1.474-1.652.733.733,0,1,0-1.466,0,3.135,3.135,0,0,0,2.305,3.019v.733a.733.733,0,0,0,1.466,0v-.689a3.13,3.13,0,0,0-.641-6.193,1.664,1.664,0,1,1,1.664-1.664.733.733,0,1,0,1.466,0,3.136,3.136,0,0,0-2.489-3.064v-.667a.733.733,0,1,0-1.466,0v.712a3.13,3.13,0,0,0,.825,6.149,1.663,1.663,0,0,1,.061,3.325Zm0,0" transform="translate(-169.027 -133.533)"/><path class="a" d="M104.2,117.12a10.628,10.628,0,1,0,10.628-10.628A10.628,10.628,0,0,0,104.2,117.12Zm10.628-9.162a9.162,9.162,0,1,1-9.162,9.162A9.162,9.162,0,0,1,114.823,107.958Zm0,0" transform="translate(-94.682 -96.736)"/><path class="a" d="M34.742,329.277,29,331.989a4.676,4.676,0,0,0-3.987-2.46l-5.3-.146a5.6,5.6,0,0,1-2.409-.622l-.539-.279a9.513,9.513,0,0,0-8.811.009l.034-1.222a.733.733,0,0,0-.713-.753l-5.812-.16a.733.733,0,0,0-.753.712L.36,339.823a.733.733,0,0,0,.713.753l5.812.16H6.9a.733.733,0,0,0,.733-.713l.017-.61,1.51-.808a2.59,2.59,0,0,1,1.933-.212l9.016,2.53.048.012a9.651,9.651,0,0,0,1.982.2,9.778,9.778,0,0,0,4.085-.891.682.682,0,0,0,.091-.05l13.073-8.456a.733.733,0,0,0,.24-.976A3.7,3.7,0,0,0,34.742,329.277Zm-32.9,9.854.311-11.289,4.346.12-.311,11.289Zm23.721-.192a8.309,8.309,0,0,1-5.082.567l-8.992-2.524a4.052,4.052,0,0,0-3.021.33l-.772.413.206-7.506a8.056,8.056,0,0,1,8.185-.437l.539.28a7.079,7.079,0,0,0,3.043.786l5.3.146a3.215,3.215,0,0,1,3.055,2.562l-7.895-.218a.733.733,0,0,0-.04,1.465l8.713.24h.02a.733.733,0,0,0,.732-.713,4.652,4.652,0,0,0-.071-.951l5.889-2.782.017-.008a2.239,2.239,0,0,1,2.532.355Zm0,0" transform="translate(-0.36 -296.457)"/><path class="a" d="M213.669,7.7V.733a.733.733,0,1,0-1.466,0V7.7a.733.733,0,1,0,1.466,0Zm0,0" transform="translate(-192.795)"/><path class="a" d="M273.669,44.031v-3.3a.733.733,0,0,0-1.466,0v3.3a.733.733,0,0,0,1.466,0Zm0,0" transform="translate(-247.298 -36.335)"/><path class="a" d="M153.669,44.031v-3.3a.733.733,0,1,0-1.466,0v3.3a.733.733,0,0,0,1.466,0Zm0,0" transform="translate(-138.292 -36.335)"/></svg>