<svg id="webmoney-paying-logo" xmlns="http://www.w3.org/2000/svg" width="135.549" height="35.689" viewBox="0 0 135.549 35.689">
  <g id="Group_215" data-name="Group 215" transform="translate(124.719 17.659)">
    <g id="Group_214" data-name="Group 214" transform="translate(0 0)">
      <rect id="Rectangle_110" data-name="Rectangle 110" width="4.287" height="4.285" transform="translate(0 2.874) rotate(-42.098)" fill="#ADADAD"/>
    </g>
  </g>
  <g id="Group_217" data-name="Group 217" transform="translate(117.318 20.245)">
    <g id="Group_216" data-name="Group 216" transform="translate(0 0)">
      <rect id="Rectangle_111" data-name="Rectangle 111" width="5.709" height="5.711" transform="matrix(0.743, -0.669, 0.669, 0.743, 0, 3.819)" fill="#ADADAD"/>
    </g>
  </g>
  <g id="Group_219" data-name="Group 219" transform="translate(131.52 16.647)">
    <g id="Group_218" data-name="Group 218" transform="translate(0 0)">
      <rect id="Rectangle_112" data-name="Rectangle 112" width="2.853" height="2.853" transform="translate(0 1.91) rotate(-42.029)" fill="#ADADAD"/>
    </g>
  </g>
  <g id="Group_221" data-name="Group 221" transform="translate(119.06 4.546)">
    <g id="Group_220" data-name="Group 220" transform="translate(0 0)">
      <rect id="Rectangle_113" data-name="Rectangle 113" width="4.285" height="4.285" transform="matrix(0.743, -0.669, 0.669, 0.743, 0, 2.867)" fill="#ADADAD"/>
    </g>
  </g>
  <g id="Group_223" data-name="Group 223" transform="translate(128.811 10.315)">
    <g id="Group_222" data-name="Group 222" transform="translate(0 0)">
      <rect id="Rectangle_114" data-name="Rectangle 114" width="2.85" height="2.853" transform="translate(0 1.911) rotate(-42.098)" fill="#ADADAD"/>
    </g>
  </g>
  <g id="Group_225" data-name="Group 225" transform="translate(0 10.493)">
    <g id="Group_224" data-name="Group 224">
      <path id="Path_373" data-name="Path 373" d="M14.218,22.239,12.14,33.012H12L9.165,22.239H7.352L4.706,33.012H4.562L2.282,22.239H0L3.3,36.678H5.5L8.186,26.513H8.33L11.1,36.678h2.2l3.3-14.439Z" transform="translate(0 -22.239)" fill="#ADADAD"/>
    </g>
  </g>
  <g id="Group_227" data-name="Group 227" transform="translate(114.303 12.892)">
    <g id="Group_226" data-name="Group 226" transform="translate(0 0)">
      <rect id="Rectangle_115" data-name="Rectangle 115" width="5.714" height="5.711" transform="matrix(0.743, -0.669, 0.669, 0.743, 0, 3.823)" fill="#ADADAD"/>
    </g>
  </g>
  <g id="Group_229" data-name="Group 229" transform="translate(111.273 5.659)">
    <g id="Group_228" data-name="Group 228" transform="translate(0 0)">
      <rect id="Rectangle_116" data-name="Rectangle 116" width="5.711" height="5.711" transform="matrix(0.743, -0.669, 0.669, 0.743, 0, 3.821)" fill="#ADADAD"/>
    </g>
  </g>
  <g id="Group_231" data-name="Group 231" transform="translate(121.993 10.95)">
    <g id="Group_230" data-name="Group 230" transform="translate(0 0)">
      <rect id="Rectangle_117" data-name="Rectangle 117" width="4.279" height="4.288" transform="translate(0 2.867) rotate(-42.069)" fill="#ADADAD"/>
    </g>
  </g>
  <g id="Group_233" data-name="Group 233" transform="translate(126.083 4.02)">
    <g id="Group_232" data-name="Group 232" transform="translate(0 0)">
      <rect id="Rectangle_118" data-name="Rectangle 118" width="2.853" height="2.853" transform="translate(0 1.91) rotate(-42.029)" fill="#ADADAD"/>
    </g>
  </g>
  <g id="Group_235" data-name="Group 235" transform="translate(86.065 14.849)">
    <g id="Group_234" data-name="Group 234">
      <path id="Path_374" data-name="Path 374" d="M38.955,23.842l-2.312,7.5H36.52l-2.606-7.5H31.676l3.907,10.186c-.489,1.508-1.342,2.606-2.728,2.606V38.3c2.339,0,3.581-1.465,4.6-4.277l3.682-10.184H38.955Z" transform="translate(-31.676 -23.842)" fill="#ADADAD"/>
    </g>
  </g>
  <g id="Group_237" data-name="Group 237" transform="translate(17.193 14.509)">
    <g id="Group_236" data-name="Group 236">
      <path id="Path_375" data-name="Path 375" d="M15.061,28.689c0-3.328-1.565-4.972-4.111-4.972-3.054,0-4.622,2.236-4.622,5.334,0,3.22,1.407,5.336,4.825,5.336a7.119,7.119,0,0,0,3.6-.943V31.9a6.273,6.273,0,0,1-3.236,1.057c-2.095,0-3.095-1.076-3.095-3.524h6.635Zm-6.594-.62c.223-2.032,1.182-2.992,2.424-2.992,1.1,0,2.138.85,2.239,2.992Z" transform="translate(-6.328 -23.717)" fill="#ADADAD"/>
    </g>
  </g>
  <g id="Group_239" data-name="Group 239" transform="translate(127.521 24.093)">
    <g id="Group_238" data-name="Group 238" transform="translate(0 0)">
      <rect id="Rectangle_119" data-name="Rectangle 119" width="4.285" height="4.288" transform="translate(0 2.868) rotate(-42.021)" fill="#ADADAD"/>
    </g>
  </g>
  <g id="Group_241" data-name="Group 241" transform="translate(76.691 14.509)">
    <g id="Group_240" data-name="Group 240">
      <path id="Path_376" data-name="Path 376" d="M36.956,28.689c.005-3.328-1.565-4.972-4.108-4.972-3.057,0-4.622,2.236-4.622,5.334,0,3.22,1.4,5.336,4.823,5.336a7.116,7.116,0,0,0,3.6-.943V31.9a6.256,6.256,0,0,1-3.233,1.057c-2.095,0-3.1-1.076-3.1-3.524h6.638Zm-6.6-.62c.228-2.032,1.187-2.992,2.429-2.992,1.095,0,2.138.85,2.239,2.992Z" transform="translate(-28.226 -23.717)" fill="#ADADAD"/>
    </g>
  </g>
  <g id="Group_243" data-name="Group 243" transform="translate(99.721 0)">
    <g id="Group_242" data-name="Group 242">
      <path id="Path_377" data-name="Path 377" d="M62.1,46.078,57.952,49.9l-7-7.8L52.9,40.394l-4.9-5.491,1.959-1.717L44.973,27.7l7.768-6.994,2.467,2.7,4.165-3.717,2.462,2.551,1.641-1.47c-.367-.212-.734-.408-1.106-.584a17.846,17.846,0,1,0,.973,31.554,19.447,19.447,0,0,0,2.348-1.56Z" transform="translate(-36.702 -18.377)" fill="#ADADAD"/>
    </g>
  </g>
  <g id="Group_245" data-name="Group 245" transform="translate(27.779 9.458)">
    <g id="Group_244" data-name="Group 244">
      <path id="Path_378" data-name="Path 378" d="M15.093,26.909a6.152,6.152,0,0,0-2.752.753v-5.8l-2.117.508V36.579a9.475,9.475,0,0,0,3.972,1c2.953,0,4.785-1.856,4.785-5.665C18.981,28.659,17.617,26.909,15.093,26.909Zm-.9,9.241a4.7,4.7,0,0,1-1.872-.323v-6.66a4.256,4.256,0,0,1,2.217-.671c1.364,0,2.3.837,2.3,3.418C16.845,35.213,15.7,36.15,14.2,36.15Z" transform="translate(-10.224 -21.858)" fill="#ADADAD"/>
    </g>
  </g>
  <g id="Group_247" data-name="Group 247" transform="translate(66.247 14.504)">
    <g id="Group_246" data-name="Group 246">
      <path id="Path_379" data-name="Path 379" d="M29.574,23.715a10.422,10.422,0,0,0-5.192,1.505v8.918H26.5V26.076a5.615,5.615,0,0,1,2.483-.734c1.046,0,1.837.285,1.837,1.894v6.9h2.117V26.772C32.933,24.677,32.014,23.72,29.574,23.715Z" transform="translate(-24.382 -23.715)" fill="#ADADAD"/>
    </g>
  </g>
  <g id="Group_249" data-name="Group 249" transform="translate(38.783 10.493)">
    <g id="Group_248" data-name="Group 248">
      <path id="Path_380" data-name="Path 380" d="M25.754,22.239,21.4,33.621h-.1L16.736,22.239H14.274V36.678h1.831V26.453h.182l4.154,10.224h1.3L25.9,26.206h.182V36.678h2.2V22.239Z" transform="translate(-14.274 -22.239)" fill="#ADADAD"/>
    </g>
  </g>
  <g id="Group_251" data-name="Group 251" transform="translate(55.026 14.509)">
    <g id="Group_250" data-name="Group 250">
      <path id="Path_381" data-name="Path 381" d="M24.9,23.717c-2.687,0-4.643,1.772-4.643,5.334,0,3.481,1.856,5.336,4.643,5.336s4.643-1.856,4.643-5.336C29.539,25.486,27.583,23.717,24.9,23.717Zm0,9.241c-1.445,0-2.505-1.114-2.505-3.907,0-2.75,1.163-3.91,2.505-3.91,1.386,0,2.505,1.16,2.505,3.91C27.4,31.841,26.341,32.958,24.9,32.958Z" transform="translate(-20.252 -23.717)" fill="#ADADAD"/>
    </g>
  </g>
</svg>
